<svg xmlns="http://www.w3.org/2000/svg" xmlns:xlink="http://www.w3.org/1999/xlink" width="120.782958984375" height="145.94595336914062" viewBox="0 0 120.782958984375 145.94595336914062" fill="none">
<path d="M0.410675 0.261475L68.1159 145.261L120.411 0.261475L113.358 0.261475L68.1159 123.33L8.43173 0.261475L0.410675 0.261475Z" stroke="rgba(0, 0, 0, 0)" stroke-width="0.5229699895588026"      fill="#AB88FC" >
</path>
<ellipse cx="53.5685920715332" cy="31.980220794677734" rx="2.631580352783203" ry="2.5173606872558594"   fill="#AB88FC" >
</ellipse>
<path d="M54.4107 62.2614L85.1269 92.2572L86.4158 89.8618L54.4107 62.2614Z" stroke="rgba(171, 136, 252, 1)" stroke-width="1"      fill="#AB88FC" >
</path>
<path     fill="#AB88FC"  d="M22.4107 30.4835L99.2506 44.6435L96.8707 49.3535L61.1307 42.0135L25.3807 34.6835L22.4107 30.4835Z">
</path>
<path    stroke="rgba(0, 0, 0, 0)" stroke-width="0.5229699895588026"    d="M84.0566 85.866L56.6609 65.6987M22.4107 30.4835L99.2528 44.642L96.871 49.358L61.1336 42.0151L25.385 34.6825L22.4107 30.4835Z">
</path>
<path     fill="#AB88FC"  d="M52.4107 40.2614L56.4107 40.2614L56.4107 44.8014L56.4107 99.2614L52.4107 90.8514L52.4107 43.1014L52.4107 40.2614Z">
</path>
<path    stroke="rgba(171, 136, 252, 1)" stroke-width="0.5229699895588026"    d="M52.4107 43.098L52.4107 90.8539L56.4107 99.2614L56.4107 44.7999M52.4107 43.098L56.4107 44.7999M52.4107 43.098L52.4107 40.2614L56.4107 40.2614L56.4107 44.7999">
</path>
<path     fill="#AB88FC"  d="M94.517 56.1561L92.937 59.1861L56.347 63.9561L94.517 56.1561Z">
</path>
<path    stroke="rgba(171, 136, 252, 1)" stroke-width="0.5229699895588026"    d="M56.347 63.9561L94.517 56.1561L92.937 59.1861L56.347 63.9561ZM56.347 63.9561L82.407 88.3861M52.937 39.5461L55.867 39.5461L55.867 40.5461">
</path>
</svg>
